<svg xmlns="http://www.w3.org/2000/svg" xmlns:xlink="http://www.w3.org/1999/xlink" width="262" zoomAndPan="magnify" viewBox="0 0 196.5 311.999988" height="416" preserveAspectRatio="xMidYMid meet" version="1.0"><defs><clipPath id="c1a23185d3"><path d="M 3.441406 120 L 174 120 L 174 244 L 3.441406 244 Z M 3.441406 120 " clip-rule="nonzero"/></clipPath><clipPath id="c5f5891b47"><path d="M 50 5.691406 L 193.15625 5.691406 L 193.15625 152.820312 L 50 152.820312 Z M 50 5.691406 " clip-rule="nonzero"/></clipPath><clipPath id="41d13fda49"><path d="M 27.601562 169.953125 L 80.730469 169.953125 L 80.730469 307.015625 L 27.601562 307.015625 Z M 27.601562 169.953125 " clip-rule="nonzero"/></clipPath></defs><g clip-path="url(#c1a23185d3)"><path fill="#02adb5" d="M 65.082031 182.605469 C 95.71875 172.8125 121.765625 174.824219 147.546875 158.542969 C 160.988281 150.054688 169.125 135.550781 173.554688 120.835938 C 173.515625 120.894531 173.472656 120.953125 173.4375 121.015625 C 161.605469 141.539062 128.523438 142.527344 104.25 147.285156 C 91.476562 149.785156 76.960938 151.820312 64.542969 155.648438 C 52.125 159.476562 40.039062 165.132812 30.835938 173.953125 C 26.683594 177.933594 23.1875 182.496094 20.105469 187.273438 C 9.234375 204.132812 3.527344 223.925781 3.851562 243.621094 C 13.453125 204.882812 40.035156 190.613281 65.082031 182.605469 " fill-opacity="1" fill-rule="nonzero"/></g><g clip-path="url(#c5f5891b47)"><path fill="#02adb5" d="M 50.117188 152.511719 C 54.769531 150.34375 59.628906 148.542969 64.542969 147.027344 C 70.3125 145.246094 76.535156 143.859375 82.824219 142.628906 C 85.816406 130.101562 91.410156 118.445312 100.992188 110.03125 C 116.386719 96.507812 138.640625 94.164062 156.164062 83.53125 C 181.972656 67.875 194.082031 35.667969 193.101562 5.527344 C 183.230469 22.453125 165.898438 35.566406 147.644531 42.742188 C 128.078125 50.4375 109.65625 56.96875 90.109375 69.355469 C 72.351562 80.605469 57.925781 95.628906 52.769531 115.988281 C 50.203125 126.128906 49.945312 136.703125 50.023438 147.167969 C 50.035156 148.945312 50.070312 150.726562 50.117188 152.511719 " fill-opacity="1" fill-rule="nonzero"/></g><g clip-path="url(#41d13fda49)"><path fill="#02adb5" d="M 79.878906 169.96875 C 75.058594 171.078125 70.132812 172.367188 65.082031 173.984375 C 60.632812 175.40625 56.132812 177.027344 51.691406 178.949219 C 53.015625 196.09375 54.480469 213.347656 53.433594 230.472656 C 51.742188 258.128906 45.359375 282.832031 27.824219 307.015625 C 56.117188 289.6875 75.203125 263.507812 79.285156 230.617188 C 81.597656 211.976562 79.691406 189.324219 79.878906 169.96875 " fill-opacity="1" fill-rule="nonzero"/></g></svg>